PathFileType  4	(X/Y/Z) C:\Users\antoi\Documents\MyRepositories\mobilecap\ResultsAnalysis
DataRate	CameraRate	NumFrames	NumMarkers	Units	OrigDataRate	OrigDataStartFrame	OrigNumFrames
100.0	100.0	4	51	mm	100.0	1261	1441
Frame#	Time	r_knee			r_shank_antsup			r_ankle			r_calc			r_5meta			r_toe			L_knee			L_shank_antsup			L_ankle			L_calc			L_5meta			L_toe			r_sh2			r_sh3			r_sh4			L_sh2			L_sh3			r_thigh1			r_thigh2			r_thigh3			r_thigh4			r_thigh5			L_thigh1			L_thigh2			L_thigh3			L_thigh4			r.ASIS			r.PSIS			L.ASIS			L.PSIS			C7			R_Shoulder			L_Shoulder			R_Sternum			L_Sternum			R_humerus			R_elbow_med			R_elbow_lat			R_forearm			R_wrist_radius			R_wrist_ulna			L_humerus			L_elbow_med			L_elbow_lat			L_forearm			L_wrist_radius			L_wrist_ulna			R_HJC			L_HJC			R_HJC_reg			L_HJC_reg			
		X1	Y1	Z1	X2	Y2	Z2	X3	Y3	Z3	X4	Y4	Z4	X5	Y5	Z5	X6	Y6	Z6	X7	Y7	Z7	X8	Y8	Z8	X9	Y9	Z9	X10	Y10	Z10	X11	Y11	Z11	X12	Y12	Z12	X13	Y13	Z13	X14	Y14	Z14	X15	Y15	Z15	X16	Y16	Z16	X17	Y17	Z17	X18	Y18	Z18	X19	Y19	Z19	X20	Y20	Z20	X21	Y21	Z21	X22	Y22	Z22	X23	Y23	Z23	X24	Y24	Z24	X25	Y25	Z25	X26	Y26	Z26	X27	Y27	Z27	X28	Y28	Z28	X29	Y29	Z29	X30	Y30	Z30	X31	Y31	Z31	X32	Y32	Z32	X33	Y33	Z33	X34	Y34	Z34	X35	Y35	Z35	X36	Y36	Z36	X37	Y37	Z37	X38	Y38	Z38	X39	Y39	Z39	X40	Y40	Z40	X41	Y41	Z41	X42	Y42	Z42	X43	Y43	Z43	X44	Y44	Z44	X45	Y45	Z45	X46	Y46	Z46	X47	Y47	Z47	X48	Y48	Z48	X49	Y49	Z49	X50	Y50	Z50	X51	Y51	Z51	

1261	12.60000000	-180.24573	534.34989	-407.18636	-138.22399	433.06298	-409.21155	-283.28285	123.68734	-423.91162	-366.62728	75.10479	-472.26341	-180.42900	48.84886	-366.06557	-116.38493	76.79388	-423.69435	-193.07884	534.98445	-843.83332	-190.49541	448.56748	-872.04777	-292.04166	125.42801	-835.66316	-375.58724	74.06446	-780.77533	-185.57819	50.72482	-872.77084	-124.86073	79.13045	-811.33590	-180.81389	330.21421	-384.35960	-197.67141	464.76717	-374.39012	-255.18765	364.29222	-367.15965	-277.94547	469.76306	-860.20400	-294.33455	348.56513	-861.60532	-247.44606	852.43751	-425.60388	-193.97129	758.78132	-419.10436	-231.79406	711.70259	-385.45152	-344.41236	795.35941	-420.77933	-281.99094	698.29526	-407.09370	-232.13528	826.77811	-821.28867	-167.50233	701.91708	-827.99104	-328.04751	778.20713	-846.45621	-269.40356	654.42235	-852.80945	-279.59465	1031.15397	-498.07499	-458.99155	1048.12452	-558.66653	-283.69961	1030.96985	-741.49499	-465.53626	1051.22112	-669.38473	-326.56258	1578.31151	-630.81373	-249.53410	1519.45577	-467.09978	-282.90430	1517.16315	-802.28564	-204.33512	1489.71464	-607.71694	-208.74415	1485.34977	-664.79978	-245.83597	1366.70173	-392.78979	-323.42879	1162.89911	-421.24821	-301.50780	1190.79645	-336.22895	-141.53574	1205.79557	-381.78070	-67.63505	1243.60602	-424.40536	-62.09181	1201.13116	-405.48753	-305.00480	1399.03765	-886.56084	-332.42526	1152.60789	-846.23317	-311.10434	1180.66542	-928.86804	-236.43356	1199.33126	-922.16445	-84.57868	1244.30326	-859.79545	-72.90158	1205.02237	-869.24825	-360.71696	916.45863	-513.47380	-370.41582	923.80911	-720.07631	-336.94606	949.56402	-530.96799	-346.42375	954.04845	-691.30579	
1262	12.61000000	-185.56869	536.50125	-408.00555	-143.13604	435.47508	-410.23567	-283.53378	123.76125	-424.07201	-366.55433	75.15534	-472.31228	-180.40531	48.85337	-366.11396	-116.43207	76.80546	-423.64509	-199.20024	537.03754	-842.66848	-196.60901	450.45099	-871.02354	-292.47844	125.68942	-835.56150	-375.62394	74.06072	-780.79753	-185.58430	50.75369	-872.74915	-124.90636	79.21690	-811.33850	-184.17064	332.27744	-384.82470	-202.92276	466.31730	-375.30340	-258.16632	365.58437	-368.14691	-284.20030	470.46750	-858.96927	-298.68959	349.03982	-860.92732	-243.58204	856.96046	-425.74458	-193.22918	761.65135	-419.36799	-232.31586	715.61764	-385.88819	-342.35486	802.53877	-421.12814	-282.87830	703.97388	-407.31932	-229.72910	830.33397	-820.84410	-169.12662	703.45184	-827.16573	-327.12201	784.70866	-845.69311	-272.39842	659.05005	-851.81018	-274.62721	1039.39065	-497.84201	-453.99273	1055.12235	-558.42703	-278.47725	1039.67330	-741.75644	-460.48839	1058.28501	-669.26810	-327.90352	1586.94553	-630.17750	-250.39134	1528.61943	-466.63648	-284.29853	1525.98633	-801.80700	-205.05302	1499.33030	-607.20273	-209.47102	1494.88966	-664.44790	-246.65055	1375.63048	-392.39482	-324.80592	1172.12749	-421.26148	-302.41403	1199.54900	-336.63762	-142.22594	1213.11614	-381.87899	-67.90231	1250.28874	-424.53560	-62.76817	1207.76804	-405.47609	-306.42887	1407.46244	-885.70729	-334.33218	1161.30688	-844.11369	-313.46666	1188.90450	-927.09740	-238.71049	1207.17168	-920.96990	-86.16405	1251.51086	-859.52643	-74.76407	1212.27408	-869.18592	-354.69683	924.09835	-513.63387	-364.42773	931.77828	-720.22300	-331.31478	957.39912	-530.94513	-340.73021	961.98334	-691.60805	
1263	12.62000000	-190.95459	538.42959	-409.10701	-148.12419	437.74864	-411.09049	-283.82690	123.85301	-424.09888	-366.49561	75.18244	-472.31841	-180.40487	48.84725	-366.11930	-116.42932	76.81020	-423.70582	-205.39309	539.10854	-841.63122	-202.62652	452.45320	-870.40774	-292.86704	125.84287	-835.40532	-375.71157	74.00198	-780.77089	-185.59338	50.78114	-872.71080	-124.94918	79.29932	-811.33849	-187.65810	334.18876	-385.37704	-208.40648	468.16369	-376.43185	-261.97224	366.75499	-368.73011	-290.47954	471.04405	-857.71507	-303.13950	349.42963	-860.10921	-239.98474	861.08031	-425.78102	-192.53913	764.13051	-419.77972	-232.65086	718.83844	-386.91571	-340.32245	809.19549	-421.54575	-283.82414	709.52197	-407.48873	-227.48808	833.51395	-820.32822	-170.81948	704.79092	-826.22094	-326.29974	790.84057	-844.83812	-275.43607	663.49031	-850.88728	-269.69927	1046.95492	-497.62763	-449.16283	1061.42028	-558.26620	-273.55743	1047.52941	-741.49330	-455.65995	1064.59560	-669.10875	-329.06695	1594.67219	-629.78222	-251.17357	1537.00896	-465.98681	-285.55637	1533.99765	-801.30520	-205.69258	1508.06154	-606.58536	-210.13778	1503.61566	-663.94515	-247.41965	1383.85138	-392.01059	-326.05633	1180.34303	-420.95206	-303.13535	1207.49058	-336.80300	-142.71907	1219.72984	-382.06238	-67.99989	1256.31104	-424.59069	-63.24631	1213.75694	-405.31499	-307.71166	1415.12189	-884.91174	-336.18411	1169.29311	-842.02846	-315.69451	1196.37362	-925.36687	-240.84804	1214.36619	-919.98283	-87.62751	1258.20527	-859.42004	-76.51505	1218.91957	-869.07623	-348.88825	931.08115	-513.57789	-358.62511	938.93021	-720.16049	-325.80413	964.68185	-530.77756	-335.21962	969.28338	-691.40793	
1264	12.63000000	-196.31646	540.24238	-410.23440	-153.02215	439.96056	-411.74520	-284.12528	124.01066	-424.02063	-366.53335	75.10985	-472.26616	-180.41898	48.83432	-366.12525	-116.42200	76.85132	-423.77745	-211.51899	541.05900	-840.62418	-208.50163	454.39009	-869.96570	-293.28931	125.93668	-835.23585	-375.77221	73.93105	-780.78865	-185.60587	50.78974	-872.69257	-125.02878	79.36810	-811.32525	-191.23780	335.83550	-385.78496	-214.02022	470.26409	-377.64401	-266.71666	367.45804	-369.02057	-296.69771	471.51624	-856.42652	-307.62226	349.74445	-858.99594	-236.60377	864.62675	-425.84524	-191.81205	766.32951	-420.35895	-233.09775	721.78749	-387.98551	-338.29247	815.35623	-421.95871	-284.75134	714.53852	-408.02939	-225.42886	836.32729	-819.76060	-172.63175	705.91558	-825.23869	-325.50541	796.61174	-843.97377	-278.47387	667.80708	-850.21108	-264.92745	1053.84803	-497.38633	-444.49382	1066.96441	-558.12230	-268.87933	1054.55143	-740.85493	-451.01737	1070.14606	-668.90568	-330.12728	1601.58304	-629.56022	-252.00447	1544.54676	-465.39123	-286.65568	1541.14269	-800.85565	-206.29034	1515.93291	-605.95398	-210.75361	1511.50610	-663.40802	-247.98970	1391.28022	-391.55006	-326.55909	1187.64135	-421.19078	-303.68976	1214.54223	-336.92882	-143.01842	1225.72350	-382.13414	-67.96097	1261.69322	-424.61281	-63.54811	1219.16330	-405.18474	-308.81333	1422.01905	-884.38983	-337.87641	1176.21975	-840.21556	-317.78912	1203.01891	-923.68951	-242.86236	1220.90188	-919.02407	-88.98542	1264.31831	-859.49130	-78.14996	1224.94181	-869.03433	-343.28969	937.38057	-513.33432	-352.97788	945.27154	-719.91755	-320.42279	971.29871	-530.50661	-329.86610	975.90437	-690.87389	
